<?xml version="1.0" encoding="UTF-8"?>
<svg id="_레이어_1" xmlns="http://www.w3.org/2000/svg" version="1.1" xmlns:xlink="http://www.w3.org/1999/xlink" viewBox="0 0 1448 1552">
  <!-- Generator: Adobe Illustrator 29.8.0, SVG Export Plug-In . SVG Version: 2.1.1 Build 160)  -->
  <defs>
    <style>
      .st0 {
        fill: url(#_무제_그라디언트);
      }

      .st1 {
        fill: #fff;
      }

      .st1, .st2 {
        display: none;
      }

      .st3 {
        fill: #00ff26;
      }
    </style>
    <linearGradient id="_무제_그라디언트" data-name="무제 그라디언트" x1="1309.35" y1="450.34" x2="0" y2="450.34" gradientTransform="translate(0 472)" gradientUnits="userSpaceOnUse">
      <stop offset="0" stop-color="#4089f5"/>
      <stop offset="1" stop-color="#232977"/>
    </linearGradient>
  </defs>
  <rect class="st1" width="1448" height="1552"/>
  <g>
    <path class="st0" d="M1215.84,501.48c51.64,0,93.51,41.87,93.51,93.53,0,12.06-2.29,23.6-6.46,34.18l.22.11-1.28,2.49c-1.73,4.06-3.74,7.98-6.03,11.72l-331.16,644.08c-14.55,32.75-47.36,55.61-85.51,55.61-50.61,0-91.81-40.19-93.47-90.39h-.07l-22.97-238.91c-2.4-24.83-35.75-31.16-47.05-8.92l-143.65,282.41c-14.5,32.86-47.36,55.81-85.6,55.81-50.61,0-91.81-40.19-93.47-90.39h-.07v-233.31c0-25.35-33.44-34.54-46.4-12.73l-171.82,289.65h-.04c-16.16,27.95-46.4,46.76-81,46.76-51.64,0-93.53-41.87-93.53-93.51,0-19.7,6.1-37.97,16.5-53.05l370.05-648.36h.04c16.16-27.95,46.4-46.76,81.03-46.76,51.64,0,93.51,41.87,93.53,93.53,0,3.12-.16,6.19-.45,9.21l.45.16v213.45c0,25.87,34.52,34.63,46.87,11.88l152.66-281.45h.04c16.16-27.95,46.4-46.76,81-46.76,49.53,0,90.08,38.51,93.31,87.23l.22.04v229.02c0,25.87,34.52,34.63,46.87,11.88l152.66-281.45h.02c16.16-27.95,46.4-46.76,81.03-46.76v-.02Z"/>
    <path class="st3" d="M1368.16,288.63c-26.63-26.63-26.63-79.84-47.92-79.84s-21.29,53.23-47.92,79.84c-26.63,26.61-79.84,26.63-79.84,47.92s53.23,21.29,79.84,47.92c26.61,26.63,26.63,79.84,47.92,79.84s21.29-53.23,47.92-79.84c26.61-26.63,79.84-26.63,79.84-47.92s-53.23-21.29-79.84-47.92Z"/>
  </g>
  <path class="st2" d="M523.44,1109.01c-2.12,0-3.91-.68-5.35-2.03-1.35-1.45-2.03-3.23-2.03-5.35v-41.37c0-6.08-1.49-10.56-4.48-13.45-2.99-2.99-6.89-4.49-11.72-4.49s-9.16,1.74-12.44,5.21c-3.18,3.47-4.77,7.91-4.77,13.31h-12.01c0-6.27,1.35-11.77,4.05-16.49,2.7-4.82,6.46-8.58,11.28-11.28,4.92-2.7,10.51-4.05,16.78-4.05,5.5,0,10.37,1.2,14.61,3.61s7.52,5.98,9.84,10.71c2.41,4.62,3.62,10.27,3.62,16.92v41.37c0,2.12-.68,3.9-2.03,5.35-1.35,1.35-3.13,2.03-5.35,2.03ZM426.96,1109.01c-2.12,0-3.9-.68-5.35-2.03-1.35-1.45-2.02-3.23-2.02-5.35v-64.37c0-2.22.68-4,2.02-5.35,1.45-1.35,3.23-2.03,5.35-2.03s4,.68,5.35,2.03,2.02,3.13,2.02,5.35v64.37c0,2.12-.67,3.9-2.02,5.35-1.35,1.35-3.13,2.03-5.35,2.03ZM475.27,1109.01c-2.12,0-3.9-.68-5.35-2.03-1.35-1.45-2.02-3.23-2.02-5.35v-41.37c0-6.08-1.49-10.56-4.48-13.45-2.99-2.99-6.89-4.49-11.72-4.49s-9.16,1.74-12.44,5.21-4.92,7.91-4.92,13.31h-9.11c0-6.27,1.25-11.77,3.76-16.49,2.51-4.82,5.98-8.58,10.42-11.28,4.44-2.7,9.5-4.05,15.19-4.05s10.37,1.2,14.61,3.61,7.52,5.98,9.84,10.71c2.41,4.62,3.62,10.27,3.62,16.92v41.37c0,2.12-.68,3.9-2.02,5.35-1.35,1.35-3.13,2.03-5.35,2.03h-.03ZM564.15,1108.86c-2.12,0-3.9-.67-5.35-2.02-1.35-1.45-2.02-3.24-2.02-5.36v-64.36c0-2.22.67-4.01,2.02-5.36,1.45-1.35,3.23-2.02,5.35-2.02s4,.67,5.35,2.02,2.02,3.14,2.02,5.36v64.36c0,2.12-.67,3.91-2.02,5.36-1.35,1.35-3.13,2.02-5.35,2.02ZM564.15,1016.87c-2.6,0-4.87-.92-6.8-2.75-1.83-1.93-2.75-4.2-2.75-6.8s.92-4.82,2.75-6.65c1.93-1.93,4.19-2.9,6.8-2.9s4.82.96,6.65,2.9c1.93,1.83,2.89,4.05,2.89,6.65s-.96,4.87-2.89,6.8c-1.83,1.83-4.05,2.75-6.65,2.75ZM617.78,1108.86c-4.24,0-8-1.16-11.28-3.47-3.28-2.32-5.83-5.45-7.67-9.4-1.83-4.05-2.75-8.68-2.75-13.89v-78.98c0-2.12.67-3.85,2.03-5.2s3.09-2.02,5.21-2.02,3.86.67,5.21,2.02,2.02,3.08,2.02,5.2v78.98c0,3.57.68,6.51,2.03,8.82,1.35,2.32,3.09,3.48,5.21,3.48h3.62c1.93,0,3.47.67,4.63,2.02,1.25,1.35,1.88,3.09,1.88,5.21s-.92,3.86-2.75,5.21-4.2,2.02-7.09,2.02h-.3ZM656.23,1079.93l-8.97-9.83,44.41-39.64c1.45-1.35,3.04-1.97,4.77-1.88,1.83.1,3.38.87,4.63,2.32,1.35,1.44,1.98,3.03,1.88,4.77s-.87,3.28-2.31,4.63l-44.41,39.63h0ZM649.43,1108.86c-2.12,0-3.86-.63-5.21-1.88-1.25-1.35-1.88-3.09-1.88-5.21v-98.79c0-2.12.63-3.81,1.88-5.06,1.35-1.35,3.09-2.02,5.21-2.02s3.81.67,5.06,2.02c1.35,1.25,2.03,2.94,2.03,5.06v98.79c0,2.12-.67,3.86-2.03,5.21-1.25,1.25-2.94,1.88-5.06,1.88ZM701.07,1108.14c-1.54,1.25-3.28,1.78-5.21,1.59-1.83-.1-3.38-.92-4.63-2.46l-29.36-36.31,10.12-9.54,30.09,37.03c1.25,1.54,1.78,3.23,1.59,5.06-.1,1.73-.96,3.28-2.6,4.63h0ZM738.87,1143.58c-.96,0-2.12-.29-3.47-.87-4.24-1.93-5.4-4.97-3.47-9.12l44.12-99.66c1.93-4.05,4.97-5.2,9.11-3.47,4.34,1.83,5.55,4.87,3.62,9.11l-44.26,99.52c-1.16,2.99-3.04,4.49-5.64,4.49h-.01ZM755.94,1105.68c-1.83.77-3.57.87-5.21.29-1.54-.68-2.8-1.93-3.76-3.76l-33.12-62.92c-.96-1.84-1.11-3.57-.43-5.21.77-1.74,2.07-2.99,3.91-3.76,1.83-.77,3.57-.82,5.21-.15,1.64.58,2.89,1.79,3.76,3.62l31.68,62.92c.96,1.83,1.3,3.62,1.01,5.35-.19,1.64-1.21,2.85-3.04,3.62h-.01ZM820.89,1108.86c-1.54,0-2.99-.43-4.34-1.3-1.25-.97-2.12-2.12-2.6-3.47l-21.41-64.23c-.77-2.99-.77-5.4,0-7.23.87-1.93,2.7-2.89,5.5-2.89,1.83,0,3.33.53,4.48,1.59,1.25.96,2.27,2.65,3.04,5.06l18.23,56.99h-5.06l17.21-58.14c.48-1.64,1.3-2.95,2.46-3.91,1.16-1.06,2.75-1.59,4.77-1.59s3.47.53,4.63,1.59c1.25.96,2.07,2.27,2.46,3.91l14.03,54.67h-2.17l17.07-53.52c1.35-4.43,3.86-6.65,7.52-6.65,2.7,0,4.53.96,5.5,2.89.96,1.83.92,4.24-.14,7.23l-21.41,64.23c-.39,1.35-1.21,2.5-2.46,3.47-1.25.87-2.7,1.3-4.34,1.3-1.54,0-2.99-.43-4.34-1.3-1.35-.97-2.22-2.12-2.6-3.47l-14.9-55.11h1.45l-15.62,55.11c-.39,1.35-1.25,2.5-2.6,3.47-1.25.87-2.7,1.3-4.34,1.3h-.02ZM938.06,1109.44c-7.04,0-13.36-1.74-18.95-5.21-5.59-3.57-10.03-8.34-13.31-14.32-3.18-6.07-4.77-12.92-4.77-20.54s1.73-14.46,5.21-20.54c3.57-6.07,8.34-10.85,14.32-14.32,6.07-3.57,12.87-5.35,20.39-5.35s14.27,1.78,20.25,5.35c5.98,3.47,10.7,8.25,14.17,14.32,3.57,6.08,5.35,12.92,5.35,20.54h-5.64c0,7.62-1.64,14.47-4.92,20.54-3.18,5.98-7.57,10.75-13.16,14.32-5.59,3.47-11.91,5.21-18.95,5.21h.01ZM940.95,1096.42c4.92,0,9.31-1.16,13.16-3.47,3.86-2.41,6.89-5.64,9.11-9.69,2.22-4.15,3.33-8.78,3.33-13.89s-1.11-9.83-3.33-13.88c-2.22-4.15-5.26-7.38-9.11-9.7-3.86-2.41-8.24-3.61-13.16-3.61s-9.21,1.2-13.16,3.61c-3.86,2.32-6.94,5.55-9.26,9.7-2.22,4.05-3.33,8.67-3.33,13.88s1.11,9.74,3.33,13.89c2.31,4.05,5.4,7.28,9.26,9.69,3.95,2.31,8.34,3.47,13.16,3.47ZM973.35,1109.01c-2.12,0-3.91-.68-5.35-2.03-1.35-1.45-2.03-3.23-2.03-5.35v-22.13l2.75-15.34,12.01,5.21v32.26c0,2.12-.72,3.9-2.17,5.35-1.35,1.35-3.09,2.03-5.21,2.03ZM1011.51,1108.86c-2.12,0-3.91-.67-5.35-2.02-1.35-1.45-2.03-3.24-2.03-5.36v-64.36c0-2.22.68-4.01,2.03-5.36,1.44-1.35,3.23-2.02,5.35-2.02s4,.67,5.35,2.02,2.03,3.14,2.03,5.36v64.36c0,2.12-.68,3.91-2.03,5.36-1.35,1.35-3.13,2.02-5.35,2.02ZM1011.51,1016.87c-2.6,0-4.87-.92-6.8-2.75-1.83-1.93-2.75-4.2-2.75-6.8s.92-4.82,2.75-6.65c1.93-1.93,4.2-2.9,6.8-2.9s4.82.96,6.65,2.9c1.93,1.83,2.9,4.05,2.9,6.65s-.97,4.87-2.9,6.8c-1.83,1.83-4.05,2.75-6.65,2.75Z"/>
</svg>